<svg width="16" height="16" viewBox="0 0 16 16" fill="none" xmlns="http://www.w3.org/2000/svg">
<path d="M8.70763 1.50006C8.5201 1.31259 8.2658 1.20728 8.00063 1.20728C7.73547 1.20728 7.48116 1.31259 7.29363 1.50006L0.646632 8.14606C0.600144 8.19255 0.563267 8.24774 0.538108 8.30848C0.512949 8.36922 0.5 8.43432 0.5 8.50006C0.5 8.56581 0.512949 8.63091 0.538108 8.69165C0.563267 8.75239 0.600144 8.80757 0.646632 8.85406C0.740518 8.94795 0.867856 9.00069 1.00063 9.00069C1.06638 9.00069 1.13148 8.98774 1.19221 8.96259C1.25295 8.93743 1.30814 8.90055 1.35463 8.85406L8.00063 2.20706L14.6466 8.85406C14.7405 8.94795 14.8679 9.00069 15.0006 9.00069C15.1334 9.00069 15.2607 8.94795 15.3546 8.85406C15.4485 8.76018 15.5013 8.63284 15.5013 8.50006C15.5013 8.36729 15.4485 8.23995 15.3546 8.14606L13.0006 5.79306V2.50006C13.0006 2.36745 12.948 2.24028 12.8542 2.14651C12.7604 2.05274 12.6332 2.00006 12.5006 2.00006H11.5006C11.368 2.00006 11.2408 2.05274 11.1471 2.14651C11.0533 2.24028 11.0006 2.36745 11.0006 2.50006V3.79306L8.70763 1.50006Z" fill="#334155"/>
<path d="M8 3.29297L14 9.29297V13.5C14 13.8978 13.842 14.2793 13.5607 14.5606C13.2794 14.8419 12.8978 15 12.5 15H3.5C3.10218 15 2.72064 14.8419 2.43934 14.5606C2.15804 14.2793 2 13.8978 2 13.5V9.29297L8 3.29297Z" fill="#334155"/>
</svg>
